# xmcd
#
# Track frame offsets: 
#        150
#        24185
#        47862
#        66960
#        86892
#        106195
#        125765
#        149655
#        171475
#        189420
#        212955
#        230395
#        254522
#
# Disc length: 3690 seconds
#
# Revision: 7
# Processed by: cddbd v1.5.2PL0 Copyright (c) Steve Scherf et al.
# Submitted via: ExactAudioCopyFreeDBPlugin 1.0
#
DISCID=c60e680d
DTITLE=辛島美登里 - Zinc White
DYEAR=1991
DGENRE=JPop
TTITLE0=黄昏を追い抜いて
TTITLE1=草原のささやき
TTITLE2=赤わいん
TTITLE3=時間旅行
TTITLE4=Emerald Dream
TTITLE5=想い出のVacation
TTITLE6=最後の手紙
TTITLE7=夏色物語
TTITLE8=ツバメ
TTITLE9=気をつけて
TTITLE10=Snow Parade
TTITLE11=イエスタデイ
TTITLE12=サイレント・イブ
EXTD=YEAR: 1991
EXTT0=
EXTT1=
EXTT2=
EXTT3=
EXTT4=
EXTT5=
EXTT6=
EXTT7=
EXTT8=
EXTT9=
EXTT10=
EXTT11=
EXTT12=
PLAYORDER=
